<svg id="Layer_1" data-name="Layer 1" xmlns="http://www.w3.org/2000/svg" viewBox="0 0 140 43"><defs><style>.cls-1{fill:#fb9f19;}.cls-2{fill:#6969f4;}</style></defs><path class="cls-1" d="M64.62,7.22a3.56,3.56,0,0,1,5.93,0,5.56,5.56,0,0,1,.59,3.06h.49a7.07,7.07,0,0,1-.11,2.15,1.07,1.07,0,0,1-.42.66,8.48,8.48,0,0,1-2,3.54,2.25,2.25,0,0,1-3,0,7.79,7.79,0,0,1-1.92-3.25c-.11-.36-.49-.58-.54-1a11.11,11.11,0,0,1-.16-1.91c-.05-.3.36-.2.54-.25A5.64,5.64,0,0,1,64.62,7.22Z"/><path class="cls-1" d="M48.7,11.75a27.12,27.12,0,0,1,7.53-3.47,37.9,37.9,0,0,0-4.92,5.44,9.23,9.23,0,0,0-1.74,4,3.49,3.49,0,0,1-2-.47,2.51,2.51,0,0,1-1.15-2.74A5.71,5.71,0,0,1,48.7,11.75Z"/><path class="cls-1" d="M56.73,8.27h2a5.67,5.67,0,0,1,1.92,2.52A1.57,1.57,0,0,1,60.58,12c-.9.35-1.81.68-2.71,1-.34-.45-.74-.85-1.07-1.31,0-.54.06-1.19-.51-1.49.19-.31.37-.63.56-.95L56,9.29C56.21,9,56.47,8.6,56.73,8.27Z"/><path class="cls-1" d="M76.7,8.27h2c.27.34.52.68.77,1l-.88-.09.55,1c-.56.3-.51.94-.49,1.49-.37.42-.73.85-1.08,1.3-.93-.37-1.9-.64-2.79-1.07C74.43,10.39,75.66,9.15,76.7,8.27Z"/><path class="cls-1" d="M79.2,8.28a31.87,31.87,0,0,1,6.21,2.6,9.19,9.19,0,0,1,3.35,3,2.32,2.32,0,0,1,0,2.42,3,3,0,0,1-2.9,1.42A8.85,8.85,0,0,0,84.31,14,35.56,35.56,0,0,0,79.2,8.28Z"/><path class="cls-1" d="M53.53,11.7a8.67,8.67,0,0,1,2.09-1.82A27.63,27.63,0,0,0,54,12.14c-.31.45.09,1-.08,1.46-.24.76-1,1.17-1.57,1.61a3.79,3.79,0,0,0-1,2.3h-1A19.27,19.27,0,0,1,53.53,11.7Z"/><path class="cls-1" d="M79.83,9.89a10.4,10.4,0,0,1,3,3.06,20.51,20.51,0,0,1,2.29,4.56h-1a3.87,3.87,0,0,0-1-2.29c-.6-.45-1.35-.85-1.58-1.62-.18-.48.22-1-.08-1.46A27.36,27.36,0,0,0,79.83,9.89Z"/><path class="cls-1" d="M52.89,15.48a7,7,0,0,1,4.43-.35c.29,0,.19.34.21.52,0,1.57,0,3.14,0,4.7a7.83,7.83,0,0,1-4.78-1.19A2.29,2.29,0,0,1,52.89,15.48Z"/><path class="cls-1" d="M77.91,15.16a7.34,7.34,0,0,1,4.63.32,2.29,2.29,0,0,1,.16,3.68,7.81,7.81,0,0,1-4.78,1.19C77.9,18.62,77.91,16.89,77.91,15.16Z"/><path class="cls-1" d="M57.88,15.61a3.71,3.71,0,0,1,2.75-.28,5.32,5.32,0,0,1,2.75,2.37,6.81,6.81,0,0,0-3.78.57,5,5,0,0,0-1.71,1.49C57.88,18.37,57.89,17,57.88,15.61Z"/><path class="cls-1" d="M74.81,15.33a3.73,3.73,0,0,1,2.74.27c0,1.38,0,2.77,0,4.15a5.3,5.3,0,0,0-2.52-1.81,7.73,7.73,0,0,0-3-.24A5.32,5.32,0,0,1,74.81,15.33Z"/><path class="cls-1" d="M68.2,18.45a4.75,4.75,0,0,1,1.5-1.65,11,11,0,0,0,1,1.44,5.54,5.54,0,0,0-3.14,2,4.35,4.35,0,0,0-3.17-2,8.13,8.13,0,0,0,1.13-1.41,5.5,5.5,0,0,1,1.38,1.83l0-1,1.24.08C68.19,18,68.19,18.21,68.2,18.45Z"/><path class="cls-1" d="M60.53,18.42a8.7,8.7,0,0,1,4.26.29,3.34,3.34,0,0,1,2.41,2.07A4.81,4.81,0,0,1,67,24.69c-.27.55-.94.55-1.47.56a26.6,26.6,0,0,1-4.26-.49,4.55,4.55,0,0,1-3.15-2.5,2.6,2.6,0,0,1-.1-1.82A5.82,5.82,0,0,1,60.53,18.42Z"/><path class="cls-1" d="M72.17,18.39a4.83,4.83,0,0,1,3.58.43,6.89,6.89,0,0,1,1.75,1.74,3.46,3.46,0,0,1-1.8,3.55,9.7,9.7,0,0,1-4.08,1,8.31,8.31,0,0,1-2.68,0c-.55-.24-.74-.9-.88-1.44a4.41,4.41,0,0,1,1-4.16A5.88,5.88,0,0,1,72.17,18.39Z"/><path class="cls-1" d="M48.78,18.49a5.41,5.41,0,0,0,3.09-.17,3.81,3.81,0,0,0,2.2,2,8.5,8.5,0,0,0,3,.44,7.81,7.81,0,0,1-3.35,1.68,3.57,3.57,0,0,1-3.16-.77A6.68,6.68,0,0,1,48.78,18.49Z"/><path class="cls-1" d="M82,20a3.72,3.72,0,0,0,1.57-1.69,5.45,5.45,0,0,0,3.1.16c-.47,1.6-1.35,3.39-3.09,3.89s-3.79-.47-5.22-1.64A7.23,7.23,0,0,0,82,20Z"/><path class="cls-1" d="M56.74,22.29c-.14-.43.19-.79.39-1.14a11.69,11.69,0,0,0,1.73,4.17,3.6,3.6,0,0,0,1.36,1.18,16.34,16.34,0,0,0,.39,3.28,9.27,9.27,0,0,1-4.55-6.25c-.06-.58-.31-1.29.21-1.75.38,1.57.72,3.36,2,4.45A16.48,16.48,0,0,1,56.74,22.29Z"/><path class="cls-1" d="M76.44,25.49a12.09,12.09,0,0,0,1.89-4.35l.42.81a15.43,15.43,0,0,1-1.6,4.29c1.29-1.1,1.63-2.89,2-4.46.13.2.35.38.31.65a9,9,0,0,1-4.61,7.31,21.84,21.84,0,0,0,.34-3.23A3.68,3.68,0,0,0,76.44,25.49Z"/><path class="cls-1" d="M60.45,25.29a12.76,12.76,0,0,0,4.3.48,3.45,3.45,0,0,0-1.58,1.83,3.42,3.42,0,0,0,.19,2.25,2.62,2.62,0,0,0-.47,1.55,3,3,0,0,0,.65,1.54c-.14.54-.26,1.09-.4,1.63-1.32-.82-1.61-2.52-1.48-3.95a3.17,3.17,0,0,1-.94-1.88c.61-.07.59.69,1,.93a1.82,1.82,0,0,0,.83.17,3.19,3.19,0,0,1-1-1.49c-.23-.08-.5-.11-.65-.31a1.92,1.92,0,0,1-.18-.95l.46.16c.1.68.78.91,1.37,1a1.88,1.88,0,0,1-.86-1.13,1.58,1.58,0,0,1-1.05-1.36l.76.31a2.89,2.89,0,0,0,.08.59,3,3,0,0,0,1.22.58,2,2,0,0,1-.8-1.14C61.4,25.83,60.91,25.58,60.45,25.29Z"/><path class="cls-1" d="M70.58,25.77A14.27,14.27,0,0,0,75,25.32l-.57.24c.12.12.24.24.35.37a1.46,1.46,0,0,1-1.08,1.19c0,.53-.41.84-.79,1.13.61-.08,1.27-.34,1.39-1l.45-.14a2,2,0,0,1-.18.95c-.16.2-.43.23-.66.32a3.32,3.32,0,0,1-1,1.48,1.36,1.36,0,0,0,1.42-1l.41-.07a3,3,0,0,1-.92,1.88c.11,1.43-.16,3.12-1.48,3.95-.14-.54-.27-1.08-.4-1.63a2.81,2.81,0,0,0,.64-1.86,2.89,2.89,0,0,0-.47-1.23A3.79,3.79,0,0,0,72.35,28,3,3,0,0,0,70.58,25.77Zm2.87.6c-.1.38-.44.6-.69.86a2.65,2.65,0,0,0,1.2-.59c.07-.28.34-.63,0-.85C73.78,26,73.52,26.09,73.45,26.37Z"/><path class="cls-1" d="M64,27.22a4.8,4.8,0,0,1,3.07-1.47l.45.61a11.4,11.4,0,0,1-.75,3c-1,0-2.08,0-3.13,0A2.58,2.58,0,0,1,64,27.22Z"/><path class="cls-1" d="M68.39,25.75a4.65,4.65,0,0,1,3.1,1.54,2.6,2.6,0,0,1,.32,2.09c-1,0-2.09,0-3.14,0a11.36,11.36,0,0,1-.74-3Z"/><path class="cls-1" d="M64.28,29.86c.82,0,1.64-.13,2.46-.06.27.26.49.56.74.83a7,7,0,0,1-.83,2.25,5.76,5.76,0,0,1-2.34-.15c-.34-.1-.73-.31-.76-.7A3.77,3.77,0,0,1,64.28,29.86Z"/><path class="cls-1" d="M68,30.64c.28-.28.48-.66.82-.86.8,0,1.58.09,2.38.09a3,3,0,0,1,.64,2.44c-.76.76-2,.62-3,.57A6.76,6.76,0,0,1,68,30.64Z"/><path class="cls-1" d="M64.67,33.55a4.21,4.21,0,0,1,2.08-.33c.26.48.81.87.74,1.47,0,.9,0,1.8,0,2.7A4.7,4.7,0,0,1,63.84,35,1.41,1.41,0,0,1,64.67,33.55Z"/><path class="cls-1" d="M68.69,33.21a4.48,4.48,0,0,1,2.08.34A1.39,1.39,0,0,1,71.59,35,4.71,4.71,0,0,1,68,37.39c0-1,0-2.09,0-3.14C68.21,33.91,68.45,33.57,68.69,33.21Z"/><path class="cls-2" d="M91.86,18.09a4.61,4.61,0,0,1,3.56-1.33,4.36,4.36,0,0,1,3.51,1.55,7.69,7.69,0,0,1,1,4.91H96.86A8.16,8.16,0,0,0,96.55,20a1.38,1.38,0,0,0-2.27-.29,3,3,0,0,0-.49,1.75c0,2.52,0,5,0,7.56a2.82,2.82,0,0,0,.56,1.83,1.45,1.45,0,0,0,1.49.3,1.56,1.56,0,0,0,.87-1.12,9.18,9.18,0,0,0,.12-2.67H95c0-.76,0-1.52,0-2.28,1.71,0,3.41,0,5.11,0q0,4.25,0,8.49H97.9l-.42-1.17A4,4,0,0,1,95,33.74a3.65,3.65,0,0,1-3.41-1.63,7.41,7.41,0,0,1-1-4.17c0-1.79,0-3.58,0-5.36A6.8,6.8,0,0,1,91.86,18.09Z"/><path class="cls-2" d="M17.32,17.23c1.1,0,2.19,0,3.28,0,0,2.25,0,4.5,0,6.75.8,0,1.6,0,2.4,0,0-2.25,0-4.5,0-6.76h3.29q0,8.18,0,16.35c-1.1,0-2.2,0-3.29,0,0-2.44,0-4.87,0-7.31h-2.4c0,2.44,0,4.87,0,7.31-1.09,0-2.18,0-3.28,0Z"/><path class="cls-2" d="M28.26,17.25c2.26,0,4.53,0,6.79,0,0,.77,0,1.53,0,2.29h-3.5V24H34c0,.76,0,1.53,0,2.29-.82,0-1.64,0-2.46,0,0,1.67,0,3.34,0,5h3.5c0,.76,0,1.52,0,2.28-2.26,0-4.52,0-6.78,0C28.28,28.14,28.29,22.7,28.26,17.25Z"/><path class="cls-2" d="M35.51,17.24h3.1c.52,1.64,1,3.3,1.56,4.92.55-1.63,1.13-3.26,1.64-4.9,1-.05,2,0,3,0-.77,2.23-1.5,4.47-2.26,6.7a8.12,8.12,0,0,0-.35,1.16,8.74,8.74,0,0,0,.34,1.24c.75,2.42,1.48,4.84,2.23,7.26-1,0-2,0-3.08,0-.51-1.79-1-3.6-1.57-5.38-.56,1.78-1,3.59-1.55,5.38-1,0-2.06,0-3.09,0,.89-2.82,1.76-5.65,2.65-8.48C37.26,22.51,36.4,19.86,35.51,17.24Z"/><path class="cls-2" d="M101,17.24h3.09c.5,2.41,1,4.83,1.55,7.23.57-2.4,1.14-4.81,1.67-7.22,1,0,2,0,3,0-1,3.48-1.94,7-2.93,10.45a2.65,2.65,0,0,0-.13.88v5c-1,0-2.09,0-3.14,0,0-1.57,0-3.15,0-4.72A3,3,0,0,0,104,28C103,24.4,102,20.81,101,17.24Z"/><path class="cls-2" d="M111.34,17.24c1.3,0,2.61,0,3.92,0q.83,5.45,1.73,10.87c.46-2.14.76-4.32,1.15-6.48.25-1.46.54-2.91.73-4.38,1.27-.06,2.54,0,3.81,0V33.6c-.79,0-1.59,0-2.38,0-.1-3.83,0-7.67-.08-11.51-.69,3.84-1.33,7.68-2,11.53h-2.42c-.68-3.82-1.3-7.66-2-11.48-.13,1.88,0,3.78-.07,5.66s0,3.88,0,5.82h-2.39C111.34,28.14,111.35,22.69,111.34,17.24Z"/></svg>